<mxfile host="app.diagrams.net" modified="2020-10-17T18:52:35.192Z" agent="5.0 (Windows NT 10.0; Win64; x64) AppleWebKit/537.36 (KHTML, like Gecko) Chrome/86.0.4240.75 Safari/537.36" etag="xfP7NmrA1z8vZtCyy0-0" version="13.8.0" type="github" pages="6">
  <diagram id="R2lEEEUBdFMjLlhIrx00" name="Guidelines">
    <mxGraphModel dx="1038" dy="580" grid="1" gridSize="10" guides="1" tooltips="1" connect="1" arrows="1" fold="1" page="1" pageScale="1" pageWidth="850" pageHeight="1100" math="0" shadow="0" extFonts="Permanent Marker^https://fonts.googleapis.com/css?family=Permanent+Marker">
      <root>
        <mxCell id="0" />
        <mxCell id="1" parent="0" />
        <mxCell id="1-oUWLxMoCwnfabzAYHs-1" value="Entity" style="whiteSpace=wrap;html=1;align=center;" vertex="1" parent="1">
          <mxGeometry x="40" y="190" width="140" height="50" as="geometry" />
        </mxCell>
        <mxCell id="1-oUWLxMoCwnfabzAYHs-2" value="Attribut" style="ellipse;whiteSpace=wrap;html=1;align=center;" vertex="1" parent="1">
          <mxGeometry x="480" y="90" width="100" height="40" as="geometry" />
        </mxCell>
        <mxCell id="1-oUWLxMoCwnfabzAYHs-3" value="Primärschlüssel" style="ellipse;whiteSpace=wrap;html=1;align=center;fontStyle=4;" vertex="1" parent="1">
          <mxGeometry x="480" y="160" width="100" height="40" as="geometry" />
        </mxCell>
        <mxCell id="1-oUWLxMoCwnfabzAYHs-4" value="Relationship" style="shape=rhombus;perimeter=rhombusPerimeter;whiteSpace=wrap;html=1;align=center;" vertex="1" parent="1">
          <mxGeometry x="290" y="192.5" width="100" height="45" as="geometry" />
        </mxCell>
        <mxCell id="1-oUWLxMoCwnfabzAYHs-5" value="&lt;span style=&quot;border-bottom: 1px dotted&quot;&gt;Fremdschlüssel&lt;/span&gt;" style="ellipse;whiteSpace=wrap;html=1;align=center;" vertex="1" parent="1">
          <mxGeometry x="480" y="230" width="100" height="40" as="geometry" />
        </mxCell>
      </root>
    </mxGraphModel>
  </diagram>
  <diagram id="Hcfd_RlDqi_PxLag4vG8" name="Gombi">
    <mxGraphModel dx="1038" dy="580" grid="1" gridSize="10" guides="1" tooltips="1" connect="1" arrows="1" fold="1" page="1" pageScale="1" pageWidth="827" pageHeight="1169" math="0" shadow="0">
      <root>
        <mxCell id="yDdMMgMcFxrPVq5dERua-0" />
        <mxCell id="yDdMMgMcFxrPVq5dERua-1" parent="yDdMMgMcFxrPVq5dERua-0" />
      </root>
    </mxGraphModel>
  </diagram>
  <diagram id="7tmxHS8RhETFk2IngPk3" name="Maurice">
    <mxGraphModel grid="1" gridSize="10" guides="1" tooltips="1" connect="1" arrows="1" page="1" fold="1" pageScale="1" pageWidth="827" pageHeight="1169" math="0" shadow="0">
      <root>
        <mxCell id="pbUJhSuKbTFLLDCdWWM8-0" />
        <mxCell id="pbUJhSuKbTFLLDCdWWM8-1" parent="pbUJhSuKbTFLLDCdWWM8-0" />
      </root>
    </mxGraphModel>
  </diagram>
  <diagram id="C4Wjkmn668QFcxqZ2xmq" name="Dennis">
    <mxGraphModel dx="1038" dy="580" grid="1" gridSize="10" guides="1" tooltips="1" connect="1" arrows="1" fold="1" page="1" pageScale="1" pageWidth="827" pageHeight="1169" math="0" shadow="0">
      <root>
        <mxCell id="5WEn3Fkala5v4dXOiiT1-0" />
        <mxCell id="5WEn3Fkala5v4dXOiiT1-1" parent="5WEn3Fkala5v4dXOiiT1-0" />
      </root>
    </mxGraphModel>
  </diagram>
  <diagram id="PYgJcJknriF4vn3slSmE" name="Tim">
    <mxGraphModel dx="1038" dy="580" grid="1" gridSize="10" guides="1" tooltips="1" connect="1" arrows="1" fold="1" page="1" pageScale="1" pageWidth="827" pageHeight="1169" math="0" shadow="0">
      <root>
        <mxCell id="Jbo31aaUoDRXkJzaRvCV-0" />
        <mxCell id="Jbo31aaUoDRXkJzaRvCV-1" parent="Jbo31aaUoDRXkJzaRvCV-0" />
        <mxCell id="7aq38jhjHyp_BOnaPL3p-0" value="Entity" style="whiteSpace=wrap;html=1;align=center;" vertex="1" parent="Jbo31aaUoDRXkJzaRvCV-1">
          <mxGeometry x="70" y="270" width="140" height="50" as="geometry" />
        </mxCell>
        <mxCell id="7aq38jhjHyp_BOnaPL3p-1" value="Attribut" style="ellipse;whiteSpace=wrap;html=1;align=center;" vertex="1" parent="Jbo31aaUoDRXkJzaRvCV-1">
          <mxGeometry x="480" y="170" width="100" height="40" as="geometry" />
        </mxCell>
        <mxCell id="7aq38jhjHyp_BOnaPL3p-2" value="Primärschlüssel" style="ellipse;whiteSpace=wrap;html=1;align=center;fontStyle=4;" vertex="1" parent="Jbo31aaUoDRXkJzaRvCV-1">
          <mxGeometry x="480" y="240" width="100" height="40" as="geometry" />
        </mxCell>
        <mxCell id="7aq38jhjHyp_BOnaPL3p-3" value="Relationship" style="shape=rhombus;perimeter=rhombusPerimeter;whiteSpace=wrap;html=1;align=center;" vertex="1" parent="Jbo31aaUoDRXkJzaRvCV-1">
          <mxGeometry x="290" y="272.5" width="100" height="45" as="geometry" />
        </mxCell>
        <mxCell id="7aq38jhjHyp_BOnaPL3p-4" value="&lt;span style=&quot;border-bottom: 1px dotted&quot;&gt;Fremdschlüssel&lt;/span&gt;" style="ellipse;whiteSpace=wrap;html=1;align=center;" vertex="1" parent="Jbo31aaUoDRXkJzaRvCV-1">
          <mxGeometry x="480" y="310" width="100" height="40" as="geometry" />
        </mxCell>
      </root>
    </mxGraphModel>
  </diagram>
  <diagram id="6dbYe89JqZ4l0s1XzsuT" name="Lukas L">
    <mxGraphModel dx="1038" dy="580" grid="1" gridSize="10" guides="1" tooltips="1" connect="1" arrows="1" fold="1" page="1" pageScale="1" pageWidth="827" pageHeight="1169" math="0" shadow="0">
      <root>
        <mxCell id="0wNZA4T8e9i71Ed3F0Qa-0" />
        <mxCell id="0wNZA4T8e9i71Ed3F0Qa-1" parent="0wNZA4T8e9i71Ed3F0Qa-0" />
      </root>
    </mxGraphModel>
  </diagram>
</mxfile>
